<svg version="1.1" id="Layer_1" xmlns="http://www.w3.org/2000/svg" xmlns:xlink="http://www.w3.org/1999/xlink" x="0px" y="0px"
	 width="100%" viewBox="0 0 512 512" enable-background="new 0 0 512 512" xml:space="preserve">
<path fill="#000000" opacity="1.000000" stroke="none" 
	d="
M427.000000,513.000000 
	C324.645233,513.000000 222.290482,513.000000 119.338936,512.620483 
	C103.242493,509.422455 90.413795,502.181732 80.313507,489.901611 
	C69.762718,477.073822 64.977623,462.450806 64.981888,445.984436 
	C65.014793,319.066406 64.990471,192.148407 65.043030,65.230400 
	C65.044716,61.151665 65.125504,56.932129 66.117043,53.018307 
	C71.186211,33.009117 81.748451,16.960159 100.837196,7.748496 
	C106.628380,4.953840 112.931412,3.219820 119.000000,1.000000 
	C221.021439,1.000000 323.042877,1.000000 425.645782,1.366487 
	C440.452271,4.983341 448.912048,17.135881 448.923553,31.237183 
	C449.046478,182.158432 449.026459,333.079834 448.906738,484.001099 
	C448.901764,490.266571 446.926331,496.104645 443.175385,501.613770 
	C439.050232,507.672546 432.719513,509.701630 427.000000,513.000000 
M103.722557,389.026917 
	C113.734314,384.849487 124.293648,383.082764 135.011017,383.068451 
	C225.004272,382.948212 314.997772,383.000000 404.991211,383.000000 
	C410.864227,383.000000 416.737213,383.000000 423.000000,383.000000 
	C423.000000,381.934509 423.000000,380.129028 423.000000,378.323547 
	C423.000000,263.665253 423.000031,149.006958 422.999878,34.348656 
	C422.999878,33.182079 423.444275,31.718325 422.905823,30.909414 
	C421.703339,29.102852 420.063324,26.287670 418.508209,26.225687 
	C408.092224,25.810535 397.651794,26.009886 387.000000,26.009886 
	C387.000000,28.369312 387.000000,30.181103 387.000000,31.992893 
	C387.000000,72.656593 387.072723,113.320511 386.952332,153.983856 
	C386.919495,165.081696 373.719574,175.706345 361.707764,172.326004 
	C351.121765,169.346893 346.125153,160.959961 340.910309,152.546982 
	C336.233002,145.001221 331.433746,137.531052 326.664459,129.989853 
	C319.262451,141.165161 311.813263,151.705124 305.155121,162.723099 
	C301.015717,169.573074 288.505646,174.190964 282.893158,172.621475 
	C270.570679,169.175629 265.970276,159.359039 265.980042,150.757355 
	C266.025238,110.926971 266.000000,71.096519 266.000000,31.266090 
	C266.000000,29.643179 266.000000,28.020267 266.000000,26.000000 
	C264.009125,26.000000 262.381714,26.000000 260.754333,26.000000 
	C218.090775,26.000000 175.427185,26.030561 132.763702,25.973078 
	C124.658630,25.962156 117.127380,27.591938 110.175125,31.954166 
	C98.510590,39.273148 91.213760,49.822750 91.175026,63.400055 
	C90.862686,172.891174 90.998878,282.383575 91.012901,391.875580 
	C91.013077,393.236145 91.207344,394.596741 91.323395,396.119690 
	C95.551064,393.710052 99.299850,391.573364 103.722557,389.026917 
M252.500000,488.000000 
	C306.816498,488.000000 361.133026,488.000092 415.449524,487.999573 
	C416.782410,487.999573 418.348541,488.433807 419.391174,487.881958 
	C420.801178,487.135712 422.781830,485.669159 422.831207,484.443665 
	C423.143494,476.696442 422.989685,468.930450 422.989685,461.000000 
	C420.579559,461.000000 418.762878,460.986420 416.946472,461.001984 
	C378.372223,461.332672 339.798584,461.831116 301.223694,461.959106 
	C250.906097,462.126068 200.587555,462.018341 150.269485,461.957336 
	C147.034805,461.953400 143.804092,461.094482 140.565979,461.051544 
	C132.059326,460.938782 127.451149,449.637115 132.295975,442.075867 
	C135.937088,436.393219 141.520554,436.058411 147.109863,436.053680 
	C237.249222,435.977692 327.388672,436.000000 417.528076,436.000000 
	C419.289673,436.000000 421.051300,436.000000 423.000000,436.000000 
	C423.000000,429.258636 422.765594,423.101135 423.067139,416.969971 
	C423.357391,411.068420 423.162567,408.977264 414.767792,408.980103 
	C321.795898,409.011658 228.823990,408.987885 135.852127,409.042206 
	C131.944656,409.044495 128.020660,409.530884 124.133057,410.019745 
	C102.547104,412.734344 87.123123,435.350708 91.836563,456.638428 
	C95.743546,474.283844 112.359077,488.168030 131.036774,488.066803 
	C171.190109,487.849213 211.345474,488.000000 252.500000,488.000000 
M346.547333,113.038361 
	C351.252289,120.766846 355.957214,128.495331 360.662170,136.223816 
	C360.978302,136.105972 361.294464,135.988129 361.610596,135.870285 
	C361.610596,99.301346 361.610596,62.732410 361.610596,26.294056 
	C337.979370,26.294056 314.590576,26.294056 291.268738,26.294056 
	C291.268738,62.912472 291.268738,99.236206 291.268738,135.559937 
	C292.652374,135.340332 293.192566,134.538681 293.706238,133.720383 
	C300.459351,122.962860 307.409180,112.322281 313.903137,101.410446 
	C320.509857,90.309120 331.096344,89.718552 338.057007,100.381798 
	C340.700043,104.430740 343.357483,108.470299 346.547333,113.038361 
z"/>
<path fill="#FFFFFF" opacity="1.000000" stroke="none" 
	d="
M118.531342,1.000000 
	C112.931412,3.219820 106.628380,4.953840 100.837196,7.748496 
	C81.748451,16.960159 71.186211,33.009117 66.117043,53.018307 
	C65.125504,56.932129 65.044716,61.151665 65.043030,65.230400 
	C64.990471,192.148407 65.014793,319.066406 64.981888,445.984436 
	C64.977623,462.450806 69.762718,477.073822 80.313507,489.901611 
	C90.413795,502.181732 103.242493,509.422455 118.871078,512.620483 
	C79.689682,513.000000 40.379364,513.000000 1.034523,513.000000 
	C1.034523,342.456207 1.034523,171.912430 1.034523,1.000000 
	C40.020119,1.000000 79.041405,1.000000 118.531342,1.000000 
z"/>
<path fill="#FFFFFF" opacity="1.000000" stroke="none" 
	d="
M427.468658,513.000000 
	C432.719513,509.701630 439.050232,507.672546 443.175385,501.613770 
	C446.926331,496.104645 448.901764,490.266571 448.906738,484.001099 
	C449.026459,333.079834 449.046478,182.158432 448.923553,31.237183 
	C448.912048,17.135881 440.452271,4.983341 426.113647,1.366487 
	C454.981476,1.000000 483.962921,1.000000 512.942932,1.000003 
	C512.941467,171.666672 512.941467,342.333344 512.941467,513.000000 
	C484.567719,513.000000 456.252533,513.000000 427.468658,513.000000 
z"/>
<path fill="#FFFFFF" opacity="1.000000" stroke="none" 
	d="
M103.385605,389.231812 
	C99.299850,391.573364 95.551064,393.710052 91.323395,396.119690 
	C91.207344,394.596741 91.013077,393.236145 91.012901,391.875580 
	C90.998878,282.383575 90.862686,172.891174 91.175026,63.400055 
	C91.213760,49.822750 98.510590,39.273148 110.175125,31.954166 
	C117.127380,27.591938 124.658630,25.962156 132.763702,25.973078 
	C175.427185,26.030561 218.090775,26.000000 260.754333,26.000000 
	C262.381714,26.000000 264.009125,26.000000 266.000000,26.000000 
	C266.000000,28.020267 266.000000,29.643179 266.000000,31.266090 
	C266.000000,71.096519 266.025238,110.926971 265.980042,150.757355 
	C265.970276,159.359039 270.570679,169.175629 282.893158,172.621475 
	C288.505646,174.190964 301.015717,169.573074 305.155121,162.723099 
	C311.813263,151.705124 319.262451,141.165161 326.664459,129.989853 
	C331.433746,137.531052 336.233002,145.001221 340.910309,152.546982 
	C346.125153,160.959961 351.121765,169.346893 361.707764,172.326004 
	C373.719574,175.706345 386.919495,165.081696 386.952332,153.983856 
	C387.072723,113.320511 387.000000,72.656593 387.000000,31.992893 
	C387.000000,30.181103 387.000000,28.369312 387.000000,26.009886 
	C397.651794,26.009886 408.092224,25.810535 418.508209,26.225687 
	C420.063324,26.287670 421.703339,29.102852 422.905823,30.909414 
	C423.444275,31.718325 422.999878,33.182079 422.999878,34.348656 
	C423.000031,149.006958 423.000000,263.665253 423.000000,378.323547 
	C423.000000,380.129028 423.000000,381.934509 423.000000,383.000000 
	C416.737213,383.000000 410.864227,383.000000 404.991211,383.000000 
	C314.997772,383.000000 225.004272,382.948212 135.011017,383.068451 
	C124.293648,383.082764 113.734314,384.849487 103.385605,389.231812 
z"/>
<path fill="#FFFFFF" opacity="1.000000" stroke="none" 
	d="
M252.000000,488.000000 
	C211.345474,488.000000 171.190109,487.849213 131.036774,488.066803 
	C112.359077,488.168030 95.743546,474.283844 91.836563,456.638428 
	C87.123123,435.350708 102.547104,412.734344 124.133057,410.019745 
	C128.020660,409.530884 131.944656,409.044495 135.852127,409.042206 
	C228.823990,408.987885 321.795898,409.011658 414.767792,408.980103 
	C423.162567,408.977264 423.357391,411.068420 423.067139,416.969971 
	C422.765594,423.101135 423.000000,429.258636 423.000000,436.000000 
	C421.051300,436.000000 419.289673,436.000000 417.528076,436.000000 
	C327.388672,436.000000 237.249222,435.977692 147.109863,436.053680 
	C141.520554,436.058411 135.937088,436.393219 132.295975,442.075867 
	C127.451149,449.637115 132.059326,460.938782 140.565979,461.051544 
	C143.804092,461.094482 147.034805,461.953400 150.269485,461.957336 
	C200.587555,462.018341 250.906097,462.126068 301.223694,461.959106 
	C339.798584,461.831116 378.372223,461.332672 416.946472,461.001984 
	C418.762878,460.986420 420.579559,461.000000 422.989685,461.000000 
	C422.989685,468.930450 423.143494,476.696442 422.831207,484.443665 
	C422.781830,485.669159 420.801178,487.135712 419.391174,487.881958 
	C418.348541,488.433807 416.782410,487.999573 415.449524,487.999573 
	C361.133026,488.000092 306.816498,488.000000 252.000000,488.000000 
z"/>
<path fill="#FFFFFF" opacity="1.000000" stroke="none" 
	d="
M346.277832,112.776245 
	C343.357483,108.470299 340.700043,104.430740 338.057007,100.381798 
	C331.096344,89.718552 320.509857,90.309120 313.903137,101.410446 
	C307.409180,112.322281 300.459351,122.962860 293.706238,133.720383 
	C293.192566,134.538681 292.652374,135.340332 291.268738,135.559937 
	C291.268738,99.236206 291.268738,62.912472 291.268738,26.294056 
	C314.590576,26.294056 337.979370,26.294056 361.610596,26.294056 
	C361.610596,62.732410 361.610596,99.301346 361.610596,135.870285 
	C361.294464,135.988129 360.978302,136.105972 360.662170,136.223816 
	C355.957214,128.495331 351.252289,120.766846 346.277832,112.776245 
z"/>
</svg>